<svg id="Layer_1" data-name="Layer 1" xmlns="http://www.w3.org/2000/svg" viewBox="0 0 1201.54 136.36"><defs><style>.cls-1{fill:#424242;}</style></defs><title>assortment-logotype</title><path class="cls-1" d="M87.43,5.38l48.25,125.09H111.2l-10.73-29.13H52.05L41.32,130.47H17L65.09,5.38Zm-27.88,76H93.33L76.53,35.94V34.69q0-.72-.18-.72t-.18.72v1.25Z"/><path class="cls-1" d="M243.52,88.45h22.72q.92,10.62,7.61,16.86t18,6.23a43.06,43.06,0,0,0,9.43-1,24.08,24.08,0,0,0,7.79-3.12,16.26,16.26,0,0,0,5.22-5.22A13.25,13.25,0,0,0,316.27,95a12.55,12.55,0,0,0-1.93-7.23A16.65,16.65,0,0,0,309.12,83a37.65,37.65,0,0,0-7.7-3.48Q297,78,292.26,76.72q-6.42-1.83-13-4.12a44.11,44.11,0,0,1-12-6.33,30.14,30.14,0,0,1-8.8-10.62q-3.39-6.6-3.39-16.86a29.09,29.09,0,0,1,3.48-14.11,35,35,0,0,1,9.53-11.09,44.87,44.87,0,0,1,14.3-7.24,59.49,59.49,0,0,1,17.77-2.56,58.89,58.89,0,0,1,18.33,2.74A43.93,43.93,0,0,1,333,14.41a39.71,39.71,0,0,1,9.8,12.19,37.45,37.45,0,0,1,4,15.85H324.33a15.57,15.57,0,0,0-7.15-13.74,24.17,24.17,0,0,0-7.69-3.3,38.58,38.58,0,0,0-9.35-1.1,36.64,36.64,0,0,0-8.7,1,25,25,0,0,0-7.24,2.93,15.22,15.22,0,0,0-4.86,4.58,10.64,10.64,0,0,0-1.74,6,12.61,12.61,0,0,0,2,7.33,16.86,16.86,0,0,0,5.4,4.94,32.82,32.82,0,0,0,7.88,3.3q4.5,1.29,9.44,2.57,6.6,1.65,13.38,3.85A41.48,41.48,0,0,1,327.9,67a31,31,0,0,1,8.89,10.63q3.48,6.58,3.48,17a32.79,32.79,0,0,1-3.66,15.66,35.19,35.19,0,0,1-10.17,11.73,47.38,47.38,0,0,1-15.3,7.42,68.19,68.19,0,0,1-19.24,2.57,57,57,0,0,1-19.34-3.12,44.54,44.54,0,0,1-15-8.79,40,40,0,0,1-9.9-13.74A50.92,50.92,0,0,1,243.52,88.45Z"/><path class="cls-1" d="M137.69,88.45h22.72q.92,10.62,7.61,16.86t18,6.23a43.15,43.15,0,0,0,9.44-1,23.93,23.93,0,0,0,7.78-3.12,16.4,16.4,0,0,0,5.23-5.22A13.33,13.33,0,0,0,210.44,95a12.63,12.63,0,0,0-1.92-7.23A16.8,16.8,0,0,0,203.29,83a37.55,37.55,0,0,0-7.69-3.48c-2.93-1-6-1.9-9.16-2.75q-6.42-1.83-13-4.12a44.25,44.25,0,0,1-12-6.33,30.22,30.22,0,0,1-8.79-10.62q-3.4-6.6-3.39-16.86a29.09,29.09,0,0,1,3.48-14.11,35,35,0,0,1,9.53-11.09,44.82,44.82,0,0,1,14.29-7.24,59.56,59.56,0,0,1,17.78-2.56,58.88,58.88,0,0,1,18.32,2.74,43.83,43.83,0,0,1,14.57,7.88A39.56,39.56,0,0,1,237,26.6a37.3,37.3,0,0,1,4,15.85H218.5a15.59,15.59,0,0,0-7.14-13.74,24.33,24.33,0,0,0-7.7-3.3,38.56,38.56,0,0,0-9.34-1.1,36.66,36.66,0,0,0-8.71,1,25,25,0,0,0-7.24,2.93,15.18,15.18,0,0,0-4.85,4.58,10.56,10.56,0,0,0-1.74,6,12.68,12.68,0,0,0,2,7.33,16.79,16.79,0,0,0,5.41,4.94,32.65,32.65,0,0,0,7.88,3.3q4.48,1.29,9.43,2.57,6.6,1.65,13.38,3.85A41.66,41.66,0,0,1,222.08,67,31.27,31.27,0,0,1,231,77.64q3.47,6.58,3.48,17a32.79,32.79,0,0,1-3.67,15.66,35,35,0,0,1-10.17,11.73,47.38,47.38,0,0,1-15.3,7.42,68.14,68.14,0,0,1-19.24,2.57,56.92,56.92,0,0,1-19.33-3.12,44.49,44.49,0,0,1-15-8.79,40.27,40.27,0,0,1-9.9-13.74A51.13,51.13,0,0,1,137.69,88.45Z"/><path class="cls-1" d="M355.18,67.92a67.47,67.47,0,0,1,4.75-25.48,60,60,0,0,1,13.24-20.27,61.84,61.84,0,0,1,20-13.34,68,68,0,0,1,50.41,0,59.88,59.88,0,0,1,33.07,33.61,67.66,67.66,0,0,1,4.74,25.48,67.58,67.58,0,0,1-4.74,25.48A59.8,59.8,0,0,1,443.58,127a68,68,0,0,1-50.41,0,61.81,61.81,0,0,1-20-13.33A59.93,59.93,0,0,1,359.93,93.4,67.39,67.39,0,0,1,355.18,67.92Zm102.47,0a50.59,50.59,0,0,0-2.92-17.35,41.61,41.61,0,0,0-8.22-13.88A38,38,0,0,0,434,27.56a37.5,37.5,0,0,0-15.8-3.29,37.06,37.06,0,0,0-15.61,3.29,38,38,0,0,0-12.52,9.13,41.43,41.43,0,0,0-8.21,13.88,50.36,50.36,0,0,0-2.93,17.35,50.41,50.41,0,0,0,2.93,17.36,40.43,40.43,0,0,0,8.21,13.79,38.73,38.73,0,0,0,12.52,9,37.21,37.21,0,0,0,15.61,3.29,37.66,37.66,0,0,0,15.8-3.29,38.73,38.73,0,0,0,12.52-9,40.61,40.61,0,0,0,8.22-13.79A50.65,50.65,0,0,0,457.65,67.92Z"/><path class="cls-1" d="M589.5,130.47H566.09l-5.37-31.1A52.48,52.48,0,0,0,558.58,92a17.44,17.44,0,0,0-3.39-5.63,14,14,0,0,0-5.46-3.57,23.52,23.52,0,0,0-8.31-1.26h-26.8v48.79H490.85V5.38h60.76c7.86,0,15.62,1,21.28,2.86a37.53,37.53,0,0,1,13.94,8,31.1,31.1,0,0,1,8,12.15A45.06,45.06,0,0,1,597.46,44,27.83,27.83,0,0,1,587.1,66.49a32.78,32.78,0,0,1-9.38,5.36,32,32,0,0,1-10,1.79h-.53q-.36,0-.36.18l1.25.36a17,17,0,0,1,6.34,3.66,24.17,24.17,0,0,1,4.38,5.45,27.15,27.15,0,0,1,2.77,6.61c.66,2.39,1.22,4.77,1.7,7.15ZM514.62,63.1h38.24a26.81,26.81,0,0,0,9.47-1.61,24.3,24.3,0,0,0,7.33-4.2,18.57,18.57,0,0,0,4.73-6.08,16.19,16.19,0,0,0,1.7-7.23,19.13,19.13,0,0,0-5.54-14.12q-5.53-5.53-16.08-5.54H514.62Z"/><path class="cls-1" d="M704.08,5.38V25.75H666.37V130.47H642.78V25.75H604.9V5.38Z"/><path class="cls-1" d="M849.58,5.38V130.47H827.42V47.55l-34,82.92H775.59L741.46,47.55v82.92H719.3V5.38h27.34l37.53,92v1.07q0,.72.18.72t.18-.72V97.41l37.88-92Z"/><path class="cls-1" d="M953.06,5.38V25.75H891.41V56.13h61.65V76.5H891.41v33.42h61.65v20.55H867.82V5.38Z"/><path class="cls-1" d="M1074,5.38V130.47h-25.37L994.84,43.26a2.7,2.7,0,0,1-.18-1.16c0-.54-.06-.8-.18-.8s-.18.26-.18.8v88.37H970.71V5.38h25.56l50.93,83.09c.59,1,1,1.67,1.34,2.15l1.34,2.14a1.1,1.1,0,0,1,.18.72v.89c0,.36.06.54.17.54s.18-.15.18-.45V5.38Z"/><path class="cls-1" d="M1188.77,5.38V25.75h-37.71V130.47h-23.59V25.75h-37.88V5.38Z"/></svg>