<svg id="Layer_1" data-name="Layer 1" xmlns="http://www.w3.org/2000/svg" viewBox="0 0 441.06 54.14"><title>assortment-logo</title><path d="M33.09,41.54H14.86l-4.26,11H5.4L21.7,11.69h4.5L42.5,52.58H37.3ZM31.34,37.1,24,17.82,16.56,37.1Z" transform="translate(-5.4 -4.39)"/><path d="M79.43,39.2h4.91c.52,5.67,4.26,9.35,10.63,9.35,5.66,0,9.75-2.16,9.75-7.13,0-10.51-23.19-4.73-23.19-19.33,0-6.49,5.66-10.87,13.84-10.87S109.22,16,109.8,23.31h-4.91c-.46-4.61-4-7.59-9.52-7.59s-8.82,2.45-8.82,6.37c0,10.45,23.37,4,23.37,19.33,0,7.42-6.42,11.63-15,11.63C85.79,53.05,80,47.56,79.43,39.2Z" transform="translate(-5.4 -4.39)"/><path d="M43.62,39.2h4.91c.53,5.67,4.26,9.35,10.63,9.35,5.67,0,9.76-2.16,9.76-7.13,0-10.51-23.2-4.73-23.2-19.33,0-6.49,5.67-10.87,13.85-10.87S73.41,16,74,23.31H69.09c-.47-4.61-4-7.59-9.52-7.59s-8.82,2.45-8.82,6.37c0,10.45,23.37,4,23.37,19.33,0,7.42-6.43,11.63-15,11.63C50,53.05,44.15,47.56,43.62,39.2Z" transform="translate(-5.4 -4.39)"/><path d="M114.54,32.14c0-12,8.53-20.92,20-20.92s20.1,8.88,20.1,20.92-8.59,20.91-20.1,20.91S114.54,44.17,114.54,32.14Zm35,0c0-9.41-6.37-16.42-15-16.42s-14.9,7-14.9,16.42,6.31,16.41,14.9,16.41S149.54,41.54,149.54,32.14Z" transform="translate(-5.4 -4.39)"/><path d="M189.57,42.61,191,52.77h-4.8l-1.41-9.87c-.72-4.21-3.46-7-7.31-7h-11.1V52.58h-5V11.69h15.48c8.06,0,13.8,4.85,13.8,12,0,4.49-3.34,7.71-7.19,9.52A11.88,11.88,0,0,1,189.57,42.61Zm-23.2-11.18h10.51c5.73,0,8.66-3.73,8.66-7.76s-2.93-7.54-8.66-7.54H166.37Z" transform="translate(-5.4 -4.39)"/><path d="M206.1,16.19H193v-4.5h31.14v4.5h-13V52.58h-5Z" transform="translate(-5.4 -4.39)"/><path d="M229.17,11.69h6.49l13.49,34.17,13.44-34.17h6.49V52.58h-4.85V20l-12.91,32.6h-4.39L234,20v32.6h-4.85Z" transform="translate(-5.4 -4.39)"/><path d="M277.73,11.69h25.59v4.5H282.7v13h19.71v4.5H282.7V48.08H304v4.5H277.73Z" transform="translate(-5.4 -4.39)"/><path d="M310.8,11.69h5.67L337.56,45V11.69h5V52.58H336.8l-21-33.18V52.58h-5Z" transform="translate(-5.4 -4.39)"/><path d="M360.64,16.19H347.55v-4.5h31.14v4.5h-13V52.58h-5Z" transform="translate(-5.4 -4.39)"/><path d="M446.36,31.46c-1.3,14.95-14.47,27.07-29.42,27.07S391,46.41,392.47,31.46,407.08,4.39,421.89,4.39,447.66,16.51,446.36,31.46Z" transform="translate(-5.4 -4.39)"/></svg>