<svg xmlns="http://www.w3.org/2000/svg" width="373.3" height="41.8" viewBox="0 0 373.3 41.8">
  <defs>
    <style>
      .cls-1 {
        fill: #424242;
      }
    </style>
  </defs>
  <title>assortment-logo</title>
  <g id="Layer_2" data-name="Layer 2">
    <g id="Layer_1-2" data-name="Layer 1">
      <path class="cls-1" d="M27.7,30.3H9.5l-4.3,11H0L16.3.5h4.5L37.1,41.4H31.9Zm-1.7-4.4L18.6,6.6,11.2,25.9Z"/>
      <path class="cls-1" d="M74,28h4.9c.5,5.7,4.3,9.4,10.6,9.4s9.8-2.2,9.8-7.1c0-10.5-23.2-4.7-23.2-19.3C76.1,4.4,81.8,0,90,0s13.9,4.8,14.4,12.1H99.5c-.5-4.6-4-7.6-9.5-7.6S81.1,7,81.1,10.9c0,10.5,23.4,4,23.4,19.3,0,7.4-6.4,11.6-15,11.6S74.6,36.3,74,28Z"/>
      <path class="cls-1" d="M38.2,28h4.9c.5,5.7,4.3,9.4,10.6,9.4s9.8-2.2,9.8-7.1c0-10.5-23.2-4.7-23.2-19.3C40.3,4.4,46,0,54.2,0S68,4.8,68.6,12.1H63.7c-.5-4.6-4-7.6-9.5-7.6S45.3,7,45.3,10.9c0,10.5,23.4,4,23.4,19.3,0,7.4-6.4,11.6-15,11.6S38.8,36.3,38.2,28Z"/>
      <path class="cls-1" d="M109.1,20.9c0-12,8.5-20.9,20-20.9s20.1,8.9,20.1,20.9-8.6,20.9-20.1,20.9S109.1,32.9,109.1,20.9Zm35,0c0-9.4-6.4-16.4-15-16.4s-14.9,7-14.9,16.4,6.3,16.4,14.9,16.4,15-7,15-16.4Z"/>
      <path class="cls-1" d="M184.2,31.4l1.4,10.2h-4.8l-1.4-9.9c-.7-4.2-3.5-7-7.3-7H161V41.4h-5V.5h15.5c8.1,0,13.8,4.8,13.8,12,0,4.5-3.3,7.7-7.2,9.5A11.9,11.9,0,0,1,184.2,31.4ZM161,20.2h10.5c5.7,0,8.7-3.7,8.7-7.8s-2.9-7.5-8.7-7.5H161Z"/>
      <path class="cls-1" d="M200.7,5H187.6V.5h31.1V5h-13V41.4h-5Z"/>
      <path class="cls-1" d="M223.8.5h6.5l13.5,34.2L257.2.5h6.5V41.4h-4.9V8.8L245.9,41.4h-4.4L228.6,8.8V41.4h-4.9Z"/>
      <path class="cls-1" d="M272.3.5h25.6V5H277.3V18H297v4.5H277.3V36.9h21.3v4.5H272.3Z"/>
      <path class="cls-1" d="M305.4.5h5.7l21.1,33.3V.5h5V41.4h-5.8l-21-33.2V41.4h-5Z"/>
      <path class="cls-1" d="M355.2,5H342.1V.5h31.1V5h-13V41.4h-5Z"/>
    </g>
  </g>
</svg>
