<?xml version="1.0" encoding="UTF-8"?>
<svg width="9px" height="8px" viewBox="0 0 9 8" version="1.1" xmlns="http://www.w3.org/2000/svg" xmlns:xlink="http://www.w3.org/1999/xlink">
    <title>↪</title>
    <g id="Talent-Single" stroke="none" stroke-width="1" fill="none" fill-rule="evenodd">
        <g transform="translate(-1038.000000, -739.000000)" fill="#424242" fill-rule="nonzero" id="Group-2">
            <g transform="translate(1037.000000, 734.000000)">
                <path d="M6.592,12.688 L9.216,10.72 L6.592,8.752 L6.592,10.272 L4.464,10.272 C3.728,10.272 3.14666667,10.0853333 2.72,9.712 C2.29333333,9.33866667 2.08,8.80533333 2.08,8.112 C2.08,7.408 2.29066667,6.872 2.712,6.504 C3.13333333,6.136 3.71733333,5.952 4.464,5.952 L4.464,5.952 L6,5.952 L6,5.056 L4.288,5.056 C3.296,5.056 2.50933333,5.32266667 1.928,5.856 C1.34666667,6.38933333 1.056,7.14133333 1.056,8.112 C1.056,9.08266667 1.34933333,9.83466667 1.936,10.368 C2.52266667,10.9013333 3.30666667,11.168 4.288,11.168 L4.288,11.168 L6.592,11.168 L6.592,12.688 Z" id="↪"></path>
            </g>
        </g>
    </g>
</svg>